<svg width="106" height="16" viewBox="0 0 106 16" fill="none" xmlns="http://www.w3.org/2000/svg">
<path d="M20.6562 11.4976H27.4471V9.49189H22.7705V7.06332H26.8966V5.06056H22.7705V2.90804H27.4471V0.902344H20.6562V11.4976Z" fill="black"/>
<path d="M59.7906 9.49189V11.4976H52.502L56.8213 2.90804H52.7743V0.902344H60.145L55.8227 9.49189H59.7906Z" fill="black"/>
<path d="M44.4875 7.66275C44.4875 9.91219 42.6983 11.6918 40.4405 11.6918C38.1828 11.6918 36.3936 9.91219 36.3936 7.66275C36.3936 5.41332 38.1681 3.65137 40.4405 3.65137C42.7129 3.65137 44.4875 5.43094 44.4875 7.66275ZM42.423 7.66275C42.423 6.54685 41.6822 5.62476 40.4405 5.62476C39.1989 5.62476 38.4551 6.54685 38.4551 7.66275C38.4551 8.77866 39.196 9.70075 40.4405 9.70075C41.6851 9.70075 42.423 8.79628 42.423 7.66275Z" fill="black"/>
<path d="M105.414 3.66896C104.559 3.66896 103.771 3.99198 103.271 4.68795L103.238 4.67034V3.82753H101.271V11.495H103.271V7.67741C103.271 6.41467 104.011 5.4779 105.414 5.67171V3.66602V3.66896Z" fill="black"/>
<path d="M61.6944 6.90143C61.9374 6.07625 62.6461 5.39789 63.6447 5.39789C64.6432 5.39789 65.3372 6.09387 65.5657 6.90143H61.6944ZM67.5804 8.42259C67.6272 8.16417 67.6448 7.88812 67.6448 7.66201C67.6448 5.41551 65.9024 3.55371 63.6447 3.55371C61.3869 3.55371 59.6445 5.41257 59.6445 7.66201C59.6445 9.91144 61.4191 11.7703 63.7091 11.7703C65.5305 11.7703 66.901 10.6221 67.4017 9.16555H65.2728C64.8394 9.66771 64.3387 9.92613 63.6915 9.92613C62.6578 9.92613 61.9638 9.28008 61.7061 8.42259H67.5774H67.5804Z" fill="black"/>
<path d="M94.7872 6.90143C95.0302 6.07625 95.7389 5.39789 96.7374 5.39789C97.736 5.39789 98.43 6.09387 98.6584 6.90143H94.7872ZM100.673 8.42259C100.72 8.16417 100.738 7.88812 100.738 7.66201C100.738 5.41551 98.9952 3.55371 96.7374 3.55371C94.4797 3.55371 92.7373 5.41257 92.7373 7.66201C92.7373 9.91144 94.5119 11.7703 96.8019 11.7703C98.6233 11.7703 99.9967 10.6221 100.495 9.16555H98.3656C97.9293 9.66771 97.4315 9.92613 96.7843 9.92613C95.7535 9.92613 95.0595 9.28008 94.8018 8.42259H100.673Z" fill="black"/>
<path d="M49.2754 3.63672C48.4203 3.63672 47.4686 4.02435 46.9532 4.68802H46.921V3.83054H45.0352V11.498H47.0352V7.64811C47.0352 6.38831 47.7292 5.62773 48.8244 5.62773C49.6942 5.62773 50.3091 6.2591 50.3091 7.3427V11.498H52.3092V6.96975C52.3092 4.88477 50.8245 3.63965 49.2783 3.63965L49.2754 3.63672Z" fill="black"/>
<path d="M90.2218 7.66236C90.2218 6.48184 89.3521 5.62436 88.2071 5.62436C86.9977 5.62436 86.2247 6.54645 86.2247 7.66236C86.2247 8.77826 86.9977 9.70036 88.2071 9.70036C89.3521 9.70036 90.2218 8.84287 90.2218 7.66236ZM90.1896 11.4946V10.8809L90.1574 10.8662C89.6567 11.336 88.866 11.6737 87.9817 11.6737C85.8703 11.6737 84.1602 9.91179 84.1602 7.66236C84.1602 5.41292 85.9347 3.65097 87.9817 3.65097C88.869 3.65097 89.6274 3.99161 90.1252 4.46147L90.1574 4.44385V0.5H92.1575V11.4976H90.1896V11.4946Z" fill="black"/>
<path d="M72.4502 3.63629C71.5951 3.63629 70.7576 3.95931 70.2393 4.62298H70.2071V0.5H68.207V11.4976H70.2071V7.64768C70.2071 6.38788 70.8835 5.6273 71.9817 5.6273C72.8514 5.6273 73.481 6.25867 73.481 7.34227V11.4976H75.4811V6.96932C75.4811 4.88434 73.9964 3.63922 72.4502 3.63922V3.63629Z" fill="black"/>
<path d="M80.5469 3.63672C79.6918 3.63672 78.7401 4.02435 78.2247 4.68802H78.1925V3.83054H76.3066V11.498H78.3067V7.64811C78.3067 6.38831 78.9978 5.62773 80.0959 5.62773C80.9686 5.62773 81.5806 6.2591 81.5806 7.3427V11.498H83.5807V6.96975C83.5807 4.88477 82.096 3.63965 80.5498 3.63965L80.5469 3.63672Z" fill="black"/>
<path d="M35.9455 3.65137H31.7784C29.5265 3.6778 27.7754 5.44562 27.7754 7.66276C27.7754 9.41297 28.8501 10.8754 30.3963 11.4422C28.9262 12.0236 27.8837 13.4596 27.8837 15.1364H29.8662C29.8662 14.044 30.7506 13.1571 31.8399 13.1571C32.9293 13.1571 33.8137 14.044 33.8137 15.1364H35.7961C35.7961 13.4508 34.7449 12.0089 33.2631 11.4363C34.7946 10.8666 35.8694 9.4071 35.8694 7.6657C35.8694 6.87575 35.6439 6.1416 35.2515 5.52198H35.9396V3.6543L35.9455 3.65137ZM31.8253 9.70075C30.5837 9.70075 29.8399 8.79628 29.8399 7.66276C29.8399 6.52923 30.5807 5.62476 31.8253 5.62476C33.0698 5.62476 33.8078 6.54685 33.8078 7.66276C33.8078 8.77866 33.0669 9.70075 31.8253 9.70075Z" fill="black"/>
<path d="M2.44447 11.0776C3.05649 11.4917 3.76808 11.709 4.52945 11.709C5.61294 11.709 6.6203 11.3096 7.36703 10.5872C8.13133 9.84719 8.55301 8.82819 8.55301 7.72109C8.55301 6.614 8.13133 5.58031 7.36703 4.83442C6.6203 4.10321 5.61001 3.70089 4.52945 3.70089C3.76515 3.70089 3.05356 3.9182 2.44447 4.33813V0.5H0.584961V11.5416H2.44447V11.0776ZM4.52945 9.84131C3.34054 9.84131 2.44447 8.92803 2.44447 7.71815C2.44447 6.50828 3.34054 5.56563 4.52945 5.56563C5.71836 5.56563 6.61444 6.49066 6.61444 7.71815C6.61444 8.94565 5.71836 9.84131 4.52945 9.84131Z" fill="black"/>
<path d="M8.67347 15.083H10.8375L16.6269 3.86816H14.4657L12.2138 8.36997L9.99123 3.86816H7.88281L11.1421 10.3874L8.6764 15.083H8.67347Z" fill="black"/>
</svg>
