<svg width="107" height="28" viewBox="0 0 107 28" fill="none" xmlns="http://www.w3.org/2000/svg">
<path d="M104.488 0C103.408 0 102.515 0.893119 102.515 2.01171C102.515 3.13031 103.408 3.98536 104.488 3.98536C105.569 3.98536 106.5 3.13031 106.5 2.01171C106.5 0.893119 105.607 0 104.488 0Z" fill="black"/>
<path d="M27.0304 8.16406C21.1446 8.16406 17.1943 12.7468 17.1943 18.0821C17.1943 23.4174 21.5223 28.0001 27.2412 28.0001C30.8986 28.0001 34.1343 26.1494 35.8561 23.1655L33.4608 21.6106C32.1987 23.7541 29.8034 25.0572 27.2412 25.0572C24.1724 25.0572 20.8957 22.9137 20.3891 19.0455H36.6116C37.3671 12.9518 32.8722 8.1582 27.0274 8.1582L27.0304 8.16406ZM20.515 16.3193C21.1885 13.3354 23.4989 11.066 27.0304 11.066C30.5618 11.066 33.168 13.7131 33.3759 16.3193H20.515Z" fill="black"/>
<path d="M39.1123 8.62673V10.8756H39.9732V27.5403H42.9161V16.9078C42.9161 13.3354 45.2265 11.022 48.2953 11.022C51.3641 11.022 53.3378 13.0806 53.3378 16.3193V27.5403H56.2807V15.6868C56.2807 11.4408 53.3817 8.16406 48.799 8.16406C45.4373 8.16406 43.3349 10.0557 42.6614 11.3998V8.62673H39.1094H39.1123Z" fill="black"/>
<path d="M79.2057 27.5406V25.2917H78.3448V0.703125H75.4019V11.2361C73.6772 9.30342 71.2409 8.16725 68.5498 8.16725C63.0447 8.16725 58.5469 12.3283 58.5469 18.1292C58.5469 23.9301 63.0447 28.0062 68.5498 28.0062C71.2409 28.0062 73.6772 26.87 75.4019 24.9813V27.5465H79.2057V27.5406ZM68.5527 25.0604C64.6845 25.0604 61.7006 22.1614 61.7006 18.1263C61.7006 14.0911 64.6845 11.1072 68.5527 11.1072C72.421 11.1072 75.4049 14.0501 75.4049 18.1263C75.4049 22.2024 72.38 25.0604 68.5527 25.0604Z" fill="black"/>
<path d="M99.1264 27.5403V25.2914H98.2655V15.1831C98.2655 11.3588 95.2816 8.16406 90.3651 8.16406C86.3709 8.16406 83.8936 10.3075 82.7165 13.1245L85.0269 14.6384C85.8263 12.5799 87.5071 11.025 90.3651 11.025C93.6008 11.025 95.1996 12.9166 95.1996 14.3866C95.1996 15.5638 94.3182 16.4042 92.9302 16.4042H88.3914C84.778 16.4042 82.0459 18.5477 82.0459 21.9093C82.0459 25.2709 84.9449 28.003 89.4017 28.003C92.6374 28.003 94.9917 26.1114 95.5803 24.7673V27.5403H99.1323H99.1264ZM95.3226 19.2592C95.3226 22.7468 93.1381 25.145 89.3958 25.145C86.6638 25.145 85.1938 23.675 85.1938 21.9093C85.1938 20.1436 86.4968 19.0103 88.4295 19.0103H95.3226V19.2622V19.2592Z" fill="black"/>
<path d="M105.959 8.62695H103.016V27.5406H105.959V8.62695Z" fill="black"/>
<path d="M1.16482 8.78223V11.4997H10.6963L0.705078 27.5963H15.2966V24.8789H5.76511L15.7563 8.78223H1.16482Z" fill="black"/>
</svg>
