<svg width="38" height="36" viewBox="0 0 38 36" fill="none" xmlns="http://www.w3.org/2000/svg">
<path d="M37.1867 15.6917C36.9566 15.2463 36.6587 14.8274 36.2841 14.4528L23.2811 1.4469C21.3519 -0.482301 18.2221 -0.482301 16.2929 1.4469C14.3637 3.37611 14.3637 6.5059 16.2929 8.4351L20.9684 13.1106H5.52596C2.79735 13.1106 0.584961 15.323 0.584961 18.0516C0.584961 20.7802 2.79735 22.9926 5.52596 22.9926H32.8475C35.5761 22.9926 37.7885 20.7802 37.7885 18.0516C37.7885 17.1962 37.5702 16.3909 37.1897 15.6917H37.1867Z" fill="#018089"/>
<path d="M18.827 24.8213H4.85352L14.5851 34.5529C16.5143 36.4821 19.6441 36.4821 21.5733 34.5529C23.5025 32.6237 23.5025 29.4939 21.5733 27.5647L18.827 24.8184V24.8213Z" fill="#018089"/>
</svg>
